{
  "accessors": [
    {
      "name": "厚纯鹅-Mesh_0_positions",
      "componentType": 5126,
      "count": 28714,
      "min": [
        -145.17727661132812,
        -248.84280395507812,
        -184.65516662597656
      ],
      "max": [
        142.26089477539062,
        233.79364013671875,
        105.51365661621094
      ],
      "type": "VEC3",
      "bufferView": 0,
      "byteOffset": 0
    },
    {
      "name": "厚纯鹅-Mesh_0_normals",
      "componentType": 5126,
      "count": 28714,
      "min": [
        -1,
        -1,
        -1
      ],
      "max": [
        1,
        1,
        1
      ],
      "type": "VEC3",
      "bufferView": 1,
      "byteOffset": 0
    },
    {
      "name": "厚纯鹅-Mesh_0_texcoords",
      "componentType": 5126,
      "count": 28714,
      "min": [
        -0.07414138317108154,
        -0.1360229253768921
      ],
      "max": [
        2,
        1.0219411849975586
      ],
      "type": "VEC2",
      "bufferView": 2,
      "byteOffset": 0
    },
    {
      "name": "厚纯鹅-Mesh_0_indices",
      "componentType": 5123,
      "count": 124674,
      "min": [
        0
      ],
      "max": [
        28713
      ],
      "type": "SCALAR",
      "bufferView": 3,
      "byteOffset": 0
    }
  ],
  "asset": {
    "generator": "obj2gltf",
    "version": "2.0"
  },
  "buffers": [
    {
      "name": "yuhangyuan",
      "byteLength": 1168196,
      "uri": "data:application/octet-stream;base64,"
    }
  ],
  "bufferViews": [
    {
      "name": "bufferView_0",
      "buffer": 0,
      "byteLength": 344568,
      "byteOffset": 0,
      "byteStride": 12,
      "target": 34962
    },
    {
      "name": "bufferView_1",
      "buffer": 0,
      "byteLength": 344568,
      "byteOffset": 344568,
      "byteStride": 12,
      "target": 34962
    },
    {
      "name": "bufferView_2",
      "buffer": 0,
      "byteLength": 229712,
      "byteOffset": 689136,
      "byteStride": 8,
      "target": 34962
    },
    {
      "name": "bufferView_3",
      "buffer": 0,
      "byteLength": 249348,
      "byteOffset": 918848,
      "target": 34963
    }
  ],
  "materials": [
    {
      "name": "default",
      "pbrMetallicRoughness": {
        "baseColorFactor": [
          1,
          1,
          1,
          1
        ],
        "metallicFactor": 0,
        "roughnessFactor": 0.95
      },
      "emissiveFactor": [
        0,
        0,
        0
      ],
      "alphaMode": "OPAQUE",
      "doubleSided": false
    }
  ],
  "meshes": [
    {
      "name": "厚纯鹅-Mesh",
      "primitives": [
        {
          "attributes": {
            "POSITION": 0,
            "NORMAL": 1,
            "TEXCOORD_0": 2
          },
          "indices": 3,
          "material": 0,
          "mode": 4
        }
      ]
    }
  ],
  "nodes": [
    {
      "name": "厚纯鹅",
      "mesh": 0
    }
  ],
  "scene": 0,
  "scenes": [
    {
      "nodes": [
        0
      ]
    }
  ]
}
